<svg width="18" height="18" viewBox="0 0 18 18" fill="none" xmlns="http://www.w3.org/2000/svg">
<path d="M12.1498 5.4C10.6019 5.39469 9.11535 6.0052 8.01797 7.09695C6.9206 8.1887 6.30245 9.67205 6.2998 11.22V17.1C6.2998 17.3387 6.39463 17.5676 6.56341 17.7364C6.73219 17.9052 6.96111 18 7.1998 18H9.2998C9.79686 18 10.1998 17.5971 10.1998 17.1V11.22C10.1994 10.6687 10.4336 10.1432 10.8439 9.77494C11.2541 9.40665 11.8017 9.23032 12.3498 9.29C13.3558 9.4167 14.1078 10.2761 14.0998 11.29V17.1C14.0998 17.5971 14.5027 18 14.9998 18H17.0998C17.5969 18 17.9998 17.5971 17.9998 17.1V11.22C17.9972 9.67205 17.379 8.1887 16.2816 7.09695C15.1843 6.0052 13.6977 5.39469 12.1498 5.4V5.4Z" fill="#151725"/>
<rect y="6.29999" width="4.5" height="11.7" rx="0.9" fill="#151725"/>
<path d="M2.25 4.5C3.49264 4.5 4.5 3.49264 4.5 2.25C4.5 1.00736 3.49264 0 2.25 0C1.00736 0 0 1.00736 0 2.25C0 3.49264 1.00736 4.5 2.25 4.5Z" fill="#151725"/>
</svg>
