<svg width="19" height="17" viewBox="0 0 19 17" fill="none" xmlns="http://www.w3.org/2000/svg">
<path d="M5.07982 16C8.06723 16.0999 10.9681 14.9876 13.1227 12.9158C15.2773 10.844 16.5026 7.98901 16.5198 4.99999C17.1975 4.1614 17.7007 3.19581 17.9998 2.15999C18.0454 1.99281 17.9887 1.81443 17.8549 1.70435C17.721 1.59427 17.5351 1.57298 17.3798 1.64999C16.6529 1.99991 15.7837 1.847 15.2198 1.26999C14.5106 0.493317 13.5171 0.0369476 12.4658 0.00491907C11.4145 -0.0271095 10.395 0.367933 9.63982 1.09999C8.59878 2.10818 8.16235 3.58826 8.48982 4.99999C5.13982 5.19999 2.83982 3.60999 0.999819 1.42999C0.886869 1.30207 0.708969 1.25306 0.546445 1.30506C0.38392 1.35707 0.267527 1.50026 0.249819 1.66999C-0.468064 5.65215 1.36669 9.66068 4.84982 11.72C3.70946 13.0278 2.10803 13.8446 0.379819 14C0.189999 14.0315 0.0411958 14.1801 0.00956334 14.3699C-0.0220691 14.5597 0.0704694 14.7486 0.239819 14.84C1.74334 15.5914 3.39905 15.9882 5.07982 16" fill="#151725"/>
</svg>
